<?xml version="1.0" encoding="UTF-8"?>
<svg xmlns="http://www.w3.org/2000/svg" id="Layer_1" data-name="Layer 1" version="1.1" viewBox="0 0 1920 1080">
  <metadata></metadata>
  <defs>
    <style>
      .cls-1 {
        fill: #34120b;
      }

      .cls-1, .cls-2, .cls-3, .cls-4, .cls-5, .cls-6, .cls-7, .cls-8, .cls-9, .cls-10, .cls-11 {
        stroke-width: 0px;
      }

      .cls-2 {
        fill: #0f1d33;
      }

      .cls-3 {
        fill: #1b355b;
      }

      .cls-4 {
        fill: #06518e;
      }

      .cls-5 {
        fill: #981836;
      }

      .cls-6 {
        fill: #4fabf6;
      }

      .cls-7 {
        fill: #dd5259;
      }

      .cls-8 {
        fill: #381f46;
      }

      .cls-9 {
        fill: #731313;
      }

      .cls-10 {
        fill: #292752;
      }

      .cls-11 {
        fill: #ff8b8d;
      }
    </style>
  </defs>
  <g id="Background">
    <rect class="cls-3" width="1920" height="1080"></rect>
    <path class="cls-3" d="M1113.46.16c-42.95,158.89-91.98,317.37-142.46,475.58-.14.44-6.19,3.77-7.5,7.91-1.19,3.78,1.17,9.88,0,13.71-3.79,12.42-13.31,26-9.37,38.49-8.94,5.15-27.6,20.16-35.62,24.78-42.55,24.54-87.49,47.73-129.34,72.76-45.98,27.49-86.64,58.16-133.09,85.41-29.56,17.35-62.97,32.15-92.79,49.03-34.36,19.46-67.49,39.84-102.16,59.05-5.78,3.21-25.12,8.34-24.37,14.24-39.39,26.48-101.18,44.09-136.84,67.49-7.77,5.1-20.94,14.71,1.87,8.96l3.75,1.05c-4.38.85-21.01,8.63-24.37,11.07-14.98,10.9-5.19,9.95-5.62,10.54-4.95,6.86-24.14,15.48-35.62,21.62-27.42,14.68-57.86,27.48-85.29,42.18-45.52,24.4-89.02,50.19-132.15,75.92H0V.16C371.15.23,742.3.07,1113.46.16Z"></path>
  </g>
  <g>
    <path class="cls-4" d="M1897,.16c16.8.37,25.23-1.8,22.49,3.16-38.52,22.23-80.97,42.41-119.97,64.32-4.37.13-5.49,2.06-7.5-1.05,35.74-21.7,69.48-44.59,104.97-66.43Z"></path>
    <g>
      <path class="cls-6" d="M1135.95.16c-44.22,158.67-101.79,315.77-149.96,474l-5.62,2.64c-.77-.29-7.02-1.15-9.37-1.05,50.48-158.2,99.52-316.69,142.46-475.58,7.5,0,15,0,22.49,0Z"></path>
      <path class="cls-5" d="M980.37,476.8c1.08.4,2.78-1.11,3.75,1.58.82,2.28-14.61,38.81-13.12,45.87v3.16c-5.11,2.93-11.77,5.5-16.87,8.44-3.93-12.48,5.58-26.07,9.37-38.49,1.17-3.83-1.19-9.93,0-13.71,1.31-4.14,7.36-7.47,7.5-7.91,2.35-.1,8.6.77,9.37,1.05Z"></path>
    </g>
    <path class="cls-5" d="M939.13,600.17l-9.37-2.11c2.44-7.92,4.41-26.61,7.5-36.91,3.21-2.74,5.13-4.28,5.62-9.49,7.01-3.7,12.53-4.97,13.12-5.27-1.92,15.57-5.13,41.45-16.87,53.78Z"></path>
    <g>
      <path class="cls-7" d="M1897,.16c-35.49,21.84-69.23,44.74-104.97,66.43-72.51,44.02-151.73,84.81-218.38,131.81,79.45-41,149.55-87.86,225.88-130.76,38.99-21.92,81.45-42.09,119.97-64.32v1076.64c-374.9-.07-749.8.1-1124.7,0,47.18-160.03,101.5-319.36,144.34-479.8,11.74-12.33,14.95-38.21,16.87-53.78,27.27-14.13,53.07-29.24,78.73-44.29,25.76-11.19,138-80.98,176.2-100.7l-6.56-7.91q-116.69,65.38-233.38,130.76c-1.49-7.06,13.95-43.59,13.12-45.87-.97-2.69-2.67-1.18-3.75-1.58l5.62-2.64c48.17-158.22,105.74-315.33,149.96-474,253.68.07,507.37-.05,761.05,0Z"></path>
      <g>
        <path class="cls-4" d="M1530.53,208.95c3.94-.51,13.7,2.51,12.18,4.75-80.68,43.79-156.23,90.8-237.12,134.45-11.35,6.12-16.13,5.94-16.87,6.33-1.64.87-8.03,7.91-29.99,18.98-66.61,33.59-.39-8.18,21.56-21.62,80.3-49.18,167.56-94.99,250.25-142.88Z"></path>
        <path class="cls-9" d="M1799.52,67.65c-76.32,42.9-146.43,89.76-225.88,130.76,66.65-47,145.87-87.8,218.38-131.81,2.01,3.11,3.13,1.18,7.5,1.05Z"></path>
        <path class="cls-9" d="M1656.12,173.1q2.34,1.32,4.69,2.64c-13.44,8.63-19.01,3.48-29.05,4.75-19.02,2.39-22.3,30.82-54.36,45.34-40.73,18.45,35.26-25.74,34.68-33.22q-2.34-1.32-4.69-2.64c-47.06,16.31,15.25-10.59,22.49-11.6,11.75-1.64,14.55,5.33,26.24-5.27Z"></path>
        <path class="cls-9" d="M1607.39,215.28l4.69,4.75c-45.46,27.75-16.16-5.04-4.69-4.75Z"></path>
        <path class="cls-1" d="M1545.53,241.64l4.69.53c-10.93,15.06-43.4,16.87-4.69-.53Z"></path>
        <path class="cls-9" d="M1740.48,112.99q.47,1.32.94,2.64c-41.89,25.61-41.45,17.08-.94-2.64Z"></path>
        <path class="cls-1" d="M1687.99,154.12c16.85,3.51-7.23,13.29-6.56,2.64l6.56-2.64Z"></path>
        <path class="cls-11" d="M1504.29,262.73c7.56.91-4.41,9.3-6.56,2.64q3.28-1.32,6.56-2.64Z"></path>
      </g>
    </g>
    <g>
      <path class="cls-6" d="M939.13,600.17c-42.84,160.43-97.15,319.76-144.34,479.8-6.87,0-13.75,0-20.62,0,55.99-157.76,101.4-316.55,149.96-475.05,1.89-6.17,5.51-6.48,5.62-6.85l9.37,2.11Z"></path>
      <path class="cls-4" d="M1034.73,502.1c-49.26,21.39,22.98-14.66,12.18-16.87-24.4,14.54-51.05,27.92-75.92,42.18v-3.16q116.69-65.38,233.38-130.76l6.56,7.91c-38.2,19.73-150.45,89.52-176.2,100.7Z"></path>
      <path class="cls-2" d="M461.13,826.89q3.75,1.32,7.5,2.64c-49.67,16.62-129.88,78.75-166.83,88.05-22.81,5.74-9.64-3.87-1.87-8.96,35.65-23.4,97.45-41.01,136.84-67.49-.75-5.9,18.58-11.03,24.37-14.24Z"></path>
      <path class="cls-2" d="M239.94,961.86c11.47-6.14,30.67-14.75,35.62-21.62.43-.6-9.36.35,5.62-10.54,3.36-2.45,19.99-10.22,24.37-11.07,2.17-.42,16.96-2.53,16.87.53-27.36,14.32-50.82,31.2-82.48,42.71Z"></path>
      <g>
        <path class="cls-10" d="M942.88,551.66c-.49,5.21-2.42,6.75-5.62,9.49-7.27,6.21-151.83,103.95-168.71,114.41-34.19,21.2-86.76,49.24-125.59,68.02,9.61-4.94,78.14-40.67,78.73-43.76.51-2.68-7.24-.39,0-10.02,2.8-3.73,51.3-35.02,61.86-42.18,3.99,2.76-22.09,13.5-8.44,18.98,35.92-20.17,64.12-44.67,98.41-65.91q-4.69-2.37-9.37-4.75c25.08-15.35,48.86-30.97,75.92-45.34,1.98-1.05,2.69,1.12,2.81,1.05Z"></path>
        <path class="cls-8" d="M783.54,647.62c26.06-17.68,52.98-34.76,80.6-51.67q4.69,2.37,9.37,4.75c-34.3,21.24-62.49,45.74-98.41,65.91-13.66-5.48,12.43-16.22,8.44-18.98Z"></path>
        <path class="cls-3" d="M642.95,743.58c-2.24,1.15-25.11,15.1-28.12,11.07,33.62-22.54,70.18-43.81,106.85-64.85-7.24,9.63.51,7.34,0,10.02-.59,3.1-69.12,38.82-78.73,43.76Z"></path>
      </g>
      <g>
        <path class="cls-4" d="M1034.73,502.1c-25.66,15.04-51.46,30.16-78.73,44.29-.59.31-6.11,1.57-13.12,5.27-.12.07-.83-2.11-2.81-1.05-27.06,14.37-50.83,29.99-75.92,45.34-27.62,16.91-54.55,33.99-80.6,51.67-10.55,7.16-59.06,38.45-61.86,42.18-36.66,21.04-73.23,42.32-106.85,64.85,3.01,4.03,25.88-9.92,28.12-11.07,38.83-18.77,91.4-46.82,125.59-68.02,16.87-10.46,161.43-108.21,168.71-114.41-3.08,10.29-5.06,28.99-7.5,36.91-.11.37-3.73.68-5.62,6.85-48.56,158.5-93.97,317.29-149.96,475.05-250.56-.07-501.12.05-751.68,0,43.14-25.73,86.63-51.52,132.15-75.92,27.43-14.7,57.87-27.5,85.29-42.18,31.66-11.5,55.12-28.39,82.48-42.71.09-3.06-14.7-.95-16.87-.53l-3.75-1.05c36.95-9.3,117.16-71.43,166.83-88.05q-3.75-1.32-7.5-2.64c34.67-19.21,67.8-39.59,102.16-59.05,29.82-16.88,63.22-31.69,92.79-49.03,46.45-27.26,87.11-57.92,133.09-85.41,41.85-25.03,86.79-48.22,129.34-72.76,8.01-4.62,26.68-19.63,35.62-24.78,5.1-2.94,11.76-5.5,16.87-8.44,24.87-14.26,51.52-27.64,75.92-42.18,10.8,2.21-61.44,38.26-12.18,16.87Z"></path>
        <g>
          <path class="cls-3" d="M437.7,854.31c23.82,1.83-73.01,54.13-78.73,56.94-54.06,26.56-21.56,3.01.94-12.13,23.73-15.97,52.47-29.67,77.79-44.82Z"></path>
          <path class="cls-3" d="M343.97,923.9c-31.05,27.82-79.31,53.1-121.84,75.92-6.23-2.05,48.72-38.78,53.42-41.65,20.67-12.61,44.05-23.97,68.42-34.27Z"></path>
          <path class="cls-3" d="M375.84,923.9c3.79-.11,7.69-.56,10.31,1.58-8.5,4.55-65.66,38.42-72.17,36.38-4.12-1.29,42.54-37.39,61.86-37.96Z"></path>
          <path class="cls-3" d="M559.54,806.85c.76-.09,10.56.46,10.31,1.58-132.78,75.21-40,2-10.31-1.58Z"></path>
          <path class="cls-2" d="M420.83,887l6.56,2.64c-69.68,42.49-88.75,32.32-6.56-2.64Z"></path>
          <path class="cls-2" d="M505.18,822.67c3.81,10.46-54.02,34.39-55.3,29,13.85-12.27,34.51-20.88,55.3-29Z"></path>
          <path class="cls-2" d="M475.19,853.25l1.87,2.11c-25.24,11.72-54.07,25.92-36.55,8.96,5.86-5.67,23.94-8.8,34.68-11.07Z"></path>
          <path class="cls-2" d="M295.23,968.19l4.69.53c-22.83,25.03-55.55,19.11-4.69-.53Z"></path>
          <path class="cls-2" d="M582.03,784.71l.94,2.64c-39.21,27.24-52.49,17.74-.94-2.64Z"></path>
        </g>
      </g>
    </g>
  </g>
</svg>
